PathFileType	4	(X/Y/Z)	 s07c0001.trc
DataRate	CameraRate	NumFrames	NumMarkers	Units	OrigDataRate	OrigDataStartFrame	OrigNumFrames
200	200	4	49	mm	200	1001	2000
Frame#	Time	racr			lacr			c7			jug			rlel			rdr			llel			ldr			s2			lic			ric			lasi			rasi			rpsi			lpsi			rgt			lgt			rth1			rth2			rth3			rth4			rlfc			rmfc			rsh1			rsh2			rsh3			rsh4			rlmal			rmmal			rcal			rtoe			rmt5			rmt1			lth1			lth2			lth4			lth3			llfc			lmfc			lsh1			lsh2			lsh3			lsh4			llmal			lmmal			lcal			ltoe			lmt1			lmt5			
		X1	Y1	Z1	X2	Y2	Z2	X3	Y3	Z3	X4	Y4	Z4	X5	Y5	Z5	X6	Y6	Z6	X7	Y7	Z7	X8	Y8	Z8	X9	Y9	Z9	X10	Y10	Z10	X11	Y11	Z11	X12	Y12	Z12	X13	Y13	Z13	X14	Y14	Z14	X15	Y15	Z15	X16	Y16	Z16	X17	Y17	Z17	X18	Y18	Z18	X19	Y19	Z19	X20	Y20	Z20	X21	Y21	Z21	X22	Y22	Z22	X23	Y23	Z23	X24	Y24	Z24	X25	Y25	Z25	X26	Y26	Z26	X27	Y27	Z27	X28	Y28	Z28	X29	Y29	Z29	X30	Y30	Z30	X31	Y31	Z31	X32	Y32	Z32	X33	Y33	Z33	X34	Y34	Z34	X35	Y35	Z35	X36	Y36	Z36	X37	Y37	Z37	X38	Y38	Z38	X39	Y39	Z39	X40	Y40	Z40	X41	Y41	Z41	X42	Y42	Z42	X43	Y43	Z43	X44	Y44	Z44	X45	Y45	Z45	X46	Y46	Z46	X47	Y47	Z47	X48	Y48	Z48	X49	Y49	Z49	
1001	5.0050	167.827886	1569.446197	557.550326	196.177423	1569.276589	187.481942	134.811071	1607.903928	368.500857	258.262627	1518.196216	379.555778	235.263299	1225.403860	690.355820	385.841196	988.073858	803.218017	272.077275	1215.552901	89.695767	427.041152	977.357618	-11.940065	103.287486	1060.135143	361.395479	248.677863	1143.918080	225.583659	235.298822	1133.047925	529.673768	313.905699	1076.653211	259.075660	283.851344	1074.447184	522.052498	115.855572	1093.907415	418.064205	131.448509	1101.927443	306.083169	200.741552	976.503423	558.346055	233.440216	973.554865	208.376320	211.163348	847.807846	561.261426	235.218273	763.015606	553.952828	215.950059	679.901076	545.127001	271.522861	765.370322	546.367338	216.207559	538.270975	511.065381	225.551153	527.321363	415.626004	177.651664	400.306160	528.480861	196.154488	314.377396	509.172993	168.508930	232.253394	503.305020	219.293861	318.606700	476.769696	158.783092	91.427041	488.695622	200.738090	105.652319	411.080307	113.687785	41.110765	446.959491	395.139644	86.540803	505.224481	310.949628	36.425691	556.939656	327.979954	44.118589	449.568165	244.745871	856.086668	194.638473	268.708922	771.662557	202.141691	303.209789	772.942126	216.460796	246.462741	685.911459	210.186918	242.732236	531.189921	239.026169	237.192371	515.451955	326.827765	209.338315	395.883573	214.439310	226.518012	313.796064	235.899515	200.449870	226.372058	231.961096	236.759775	317.225619	275.945640	190.503954	90.620713	243.287663	224.742449	111.769160	324.493372	141.540552	37.380323	280.104910	422.982012	93.092854	249.151365	358.984488	47.762862	297.224029	345.581379	53.031575	192.432743	
1002	5.0100	167.848838	1569.450614	557.535275	196.203466	1569.269308	187.489269	134.850507	1607.911582	368.493918	258.299672	1518.181818	379.528932	235.285665	1225.411002	690.364212	385.872079	988.083740	803.231753	272.099813	1215.534566	89.716127	427.076367	977.327279	-11.928586	103.312998	1060.132584	361.380351	248.708615	1143.901148	225.566466	235.305590	1133.047331	529.666797	313.905725	1076.638709	259.061727	283.850462	1074.453523	522.070551	115.874227	1093.898287	418.048887	131.487547	1101.921347	306.064522	200.752193	976.495034	558.338612	233.440266	973.554826	208.376320	211.151658	847.808649	561.259884	235.225904	763.003241	553.952293	215.948072	679.896866	545.128370	271.522182	765.362532	546.371248	216.205723	538.255999	511.054096	225.540319	527.321037	415.607398	177.653366	400.300714	528.476706	196.161442	314.369845	509.153181	168.507636	232.254621	503.305859	219.288439	318.589403	476.792203	158.793378	91.424923	488.699203	200.741270	105.656637	411.083645	113.663171	41.126056	446.932386	395.149642	86.545413	505.221605	310.969862	36.436381	556.941473	327.991976	44.160861	449.569540	244.757761	856.084712	194.630716	268.727973	771.649359	202.152056	303.218802	772.939321	216.423740	246.462701	685.905394	210.168308	242.732315	531.217943	239.016719	237.239250	515.444566	326.884149	209.332574	395.878234	214.447130	226.538759	313.814186	235.915543	200.448218	226.373586	231.960963	236.738283	317.217902	275.945589	190.508696	90.606185	243.287366	224.747570	111.760406	324.493469	141.527037	37.361603	280.109194	422.977070	93.072757	249.161627	358.973904	47.763967	297.213406	345.586462	53.032944	192.429029	
1003	5.0150	167.887016	1569.459993	557.504982	196.243958	1569.258862	187.457826	134.885796	1607.907082	368.470932	258.309285	1518.167118	379.504525	235.327295	1225.412735	690.359531	385.884648	988.113470	803.258089	272.135400	1215.513510	89.699678	427.091917	977.306378	-11.939870	103.325512	1060.148105	361.369938	248.744760	1143.901402	225.571318	235.326728	1133.042100	529.654022	313.939269	1076.644163	259.076043	283.861104	1074.430494	522.055086	115.924311	1093.890591	418.034363	131.508364	1101.896646	306.099052	200.750653	976.500537	558.329662	233.462209	973.550618	208.375581	211.170496	847.803783	561.251083	235.220037	763.001094	553.956715	215.957721	679.896425	545.123236	271.509508	765.375961	546.393999	216.214128	538.257506	511.054425	225.552591	527.318611	415.604085	177.651733	400.301221	528.487179	196.144909	314.373701	509.169386	168.497755	232.266103	503.304254	219.285355	318.598401	476.780589	158.782524	91.427060	488.699627	200.723223	105.660561	411.072793	113.663172	41.126039	446.932383	395.143217	86.569230	505.217709	310.971960	36.436210	556.947545	327.983263	44.143007	449.548613	244.775088	856.075601	194.621743	268.721587	771.661851	202.096978	303.224995	772.936540	216.420108	246.486582	685.875230	210.185644	242.749936	531.205819	239.003720	237.228131	515.430088	326.876639	209.264047	395.784320	214.327193	226.526879	313.804325	235.888761	200.444991	226.364814	231.957175	236.741963	317.218071	275.931606	190.493588	90.625266	243.277340	224.742447	111.769161	324.493381	141.531587	37.362241	280.108993	422.982068	93.091291	249.149654	358.953955	47.748257	297.192375	345.586459	53.030732	192.417340	
1004	5.0200	167.941966	1569.456852	557.495339	196.272785	1569.236438	187.453551	134.911083	1607.913419	368.469556	258.355251	1518.154833	379.510066	235.361412	1225.446059	690.372019	385.908168	988.114985	803.269593	272.161888	1215.493140	89.697438	427.121824	977.277872	-11.933238	103.362300	1060.131794	361.366281	248.753527	1143.901054	225.569311	235.343084	1133.044777	529.652761	313.967299	1076.604747	259.084061	283.896232	1074.434693	522.040486	115.924845	1093.909202	418.031056	131.532911	1101.949522	306.045640	200.755095	976.494057	558.328590	233.476200	973.571275	208.368148	211.167411	847.808021	561.260162	235.220206	763.012283	553.983137	215.956800	679.897943	545.135985	271.512217	765.367879	546.379196	216.209427	538.257974	511.066918	225.561666	527.322633	415.621198	177.654573	400.305186	528.483651	196.147437	314.364536	509.162950	168.507867	232.260314	503.296650	219.286744	318.593724	476.783977	158.782202	91.426960	488.700569	200.739913	105.652423	411.075733	113.662218	41.118710	446.931806	395.154673	86.558160	505.229897	310.996917	36.414867	556.953544	327.966509	44.153318	449.571527	244.795570	856.084293	194.614850	268.740652	771.647342	202.119673	303.245211	772.923222	216.412301	246.506769	685.867863	210.169623	242.737733	531.219487	239.005556	237.226377	515.444419	326.889168	209.264512	395.784006	214.332559	226.523146	313.809300	235.902550	200.422513	226.388538	231.957766	236.738823	317.214505	275.947886	190.491565	90.616352	243.291608	224.742447	111.769159	324.493385	141.525467	37.360040	280.105913	422.982103	93.077578	249.153294	358.970554	47.761543	297.210582	345.586433	53.030724	192.432547	
